<svg width="1445" height="355" viewBox="0 0 1445 355" fill="none" xmlns="http://www.w3.org/2000/svg">
<g clip-path="url(#clip0_1429_751)">
<g filter="url(#filter0_d_1429_751)">
<path d="M6.90204 35.2717L0 38.8412V237.393H1445V8.96335L1438.01 7.54369C1413.49 2.56205 1388.23 2.39345 1363.64 7.04725C1334.33 12.5951 1306.7 24.857 1282.93 42.8717L1272.3 50.926C1249.64 68.0945 1224.21 81.2708 1197.12 89.888L1193.31 91.0999C1152 104.239 1108.16 107.359 1065.4 100.204L1050.73 97.7488C1021.78 92.9028 993.588 84.2698 966.885 72.0718L944.72 61.9467C922.528 51.8095 899.585 43.4035 876.097 36.8042L827.701 23.2065C792.409 13.2905 755.36 11.3004 719.209 17.3785C681.982 23.6373 646.669 38.2893 615.947 60.2238L609.377 64.9147C585.758 81.7774 559.097 93.9047 530.865 100.626C501.854 107.534 471.759 108.597 442.333 103.753L412.413 98.8278C378.635 93.2676 345.776 83.114 314.749 68.6494L250.811 38.8412L193.968 20.2151C169.573 12.2213 144.064 8.1485 118.393 8.1485C79.5955 8.1485 41.3636 17.4495 6.90204 35.2717Z" fill="url(#paint0_linear_1429_751)"/>
</g>
<path d="M11.4126 141.225L0 155.757V303.449H1445V99.8293L1442.85 99.5529C1428.92 97.7617 1414.78 98.5664 1401.15 101.926C1387.83 105.207 1375.22 110.87 1363.92 118.641L1354.87 124.86C1341.57 134.011 1327.05 141.263 1311.75 146.408L1276 158.424C1226.31 175.125 1172 171.13 1125.29 147.341L1074.11 121.234C1052.12 110.02 1027.79 104.173 1003.11 104.173C981.583 104.173 960.29 108.62 940.565 117.235L915.769 128.065L880.23 145.952C841.778 165.306 797.322 169.002 756.203 156.263C737.158 150.363 719.262 141.036 703.499 128.827C682.632 112.666 658.152 101.598 632.226 96.6569L629.185 96.0775C591.09 88.8178 551.67 94.0307 516.771 110.943L465.754 135.666L459.869 138.479C410.052 162.29 352.153 162.358 302.28 138.664L300.882 138C287.003 131.406 274.071 122.979 262.435 112.945L261.655 112.272C240.813 94.2992 215.864 81.7363 189.014 75.6938C155.184 68.0806 119.826 71.1499 87.8141 84.4783L84.005 86.0643C55.4869 97.9381 30.4925 116.931 11.4126 141.225Z" fill="#0B5074"/>
<path d="M193.596 183.232L170.415 200.493C145.748 218.86 110.8 213.339 92.9971 188.262C88.1941 181.496 81.9176 175.91 74.6409 171.923L66.2714 167.338C52.0898 159.569 36.18 155.496 20.0097 155.496H0V303.967H1445V159.316C1413.95 149.241 1382.27 158.931 1364.08 186.038C1360.29 191.681 1357.26 195.469 1355.43 195.469C1350.89 195.469 1332.13 229.318 1308.65 246.51C1296.66 255.291 1281.1 255.836 1266.24 255.836C1234.42 255.836 1202.86 250.05 1173.1 238.759L1170.09 237.617L1142.98 224.037C1108.92 206.976 1072.58 194.899 1035.08 188.178L1016.36 184.822C999.648 181.826 982.649 180.708 965.684 181.488C925.43 183.338 886.386 195.829 852.531 217.685L842.73 224.013C815.895 241.338 785.639 252.673 754.025 257.245C721.87 261.895 689.086 259.436 657.985 250.041L637.097 243.732C615.621 237.245 594.885 228.521 575.231 217.703L564.863 211.995C548.341 202.901 532.879 192.002 518.761 179.497L514.813 176.001C490.245 154.241 461.143 137.924 429.784 128.244C395.294 117.597 358.584 115.197 323.017 121.352C292.633 126.609 263.624 137.95 237.731 154.694L193.596 183.232Z" fill="#146C94"/>
<path d="M13.607 194.359L0 196.05V354.025H1445V215.322L1415.99 204.478C1393.88 196.212 1370.47 191.979 1346.86 191.979C1323.37 191.979 1300.06 196.171 1278.04 204.359L1204.77 231.608L1135.57 258.646C1109.49 268.834 1082.66 276.957 1055.31 282.939L1011.25 292.576C994.46 296.249 977.258 297.684 960.093 296.844C940.462 295.884 921.089 291.958 902.633 285.202L897.966 283.493C880.655 277.156 864.178 268.738 848.898 258.424L820.316 239.131C793.079 220.747 762.303 208.251 729.959 202.444C691.69 195.573 652.318 198.261 615.338 210.268L549.616 231.608L454.089 268.78C433.174 276.919 411.622 283.317 389.654 287.91L368.731 292.284C350.223 296.153 331.312 297.754 312.417 297.052L302.778 296.694C279.697 295.836 256.987 290.605 235.856 281.28C221.969 275.152 208.9 267.315 196.953 257.952L185.979 249.352C170.926 237.556 154.667 227.386 137.473 219.014L124.814 212.85C102.025 201.753 77.318 195.131 52.0333 193.341C39.2218 192.435 26.3525 192.776 13.607 194.359Z" fill="#002E4D"/>
</g>
<defs>
<filter id="filter0_d_1429_751" x="-10.0634" y="-15.1589" width="1465.13" height="253.842" filterUnits="userSpaceOnUse" color-interpolation-filters="sRGB">
<feFlood flood-opacity="0" result="BackgroundImageFix"/>
<feColorMatrix in="SourceAlpha" type="matrix" values="0 0 0 0 0 0 0 0 0 0 0 0 0 0 0 0 0 0 127 0" result="hardAlpha"/>
<feOffset dy="-8.77321"/>
<feGaussianBlur stdDeviation="5.0317"/>
<feComposite in2="hardAlpha" operator="out"/>
<feColorMatrix type="matrix" values="0 0 0 0 0.027451 0 0 0 0 0.262745 0 0 0 0 0.396078 0 0 0 1 0"/>
<feBlend mode="normal" in2="BackgroundImageFix" result="effect1_dropShadow_1429_751"/>
<feBlend mode="normal" in="SourceGraphic" in2="effect1_dropShadow_1429_751" result="shape"/>
</filter>
<linearGradient id="paint0_linear_1429_751" x1="0" y1="118.696" x2="1445" y2="118.696" gradientUnits="userSpaceOnUse">
<stop stop-color="#4C98BA"/>
<stop offset="1" stop-color="#91C8E0"/>
</linearGradient>
<clipPath id="clip0_1429_751">
<rect width="1445" height="354.025" fill="white"/>
</clipPath>
</defs>
</svg>
